<svg width="178" height="30" viewBox="0 0 178 30" fill="none" xmlns="http://www.w3.org/2000/svg">
<path d="M39.3 14.84C40.0867 14.9867 40.7333 15.38 41.24 16.02C41.7467 16.66 42 17.3933 42 18.22C42 18.9667 41.8133 19.6267 41.44 20.2C41.08 20.76 40.5533 21.2 39.86 21.52C39.1667 21.84 38.3467 22 37.4 22H31.38V8.04H37.14C38.0867 8.04 38.9 8.19333 39.58 8.5C40.2733 8.80667 40.7933 9.23333 41.14 9.78C41.5 10.3267 41.68 10.9467 41.68 11.64C41.68 12.4533 41.46 13.1333 41.02 13.68C40.5933 14.2267 40.02 14.6133 39.3 14.84ZM34.18 13.8H36.74C37.4067 13.8 37.92 13.6533 38.28 13.36C38.64 13.0533 38.82 12.62 38.82 12.06C38.82 11.5 38.64 11.0667 38.28 10.76C37.92 10.4533 37.4067 10.3 36.74 10.3H34.18V13.8ZM37 19.72C37.68 19.72 38.2067 19.56 38.58 19.24C38.9667 18.92 39.16 18.4667 39.16 17.88C39.16 17.28 38.96 16.8133 38.56 16.48C38.16 16.1333 37.62 15.96 36.94 15.96H34.18V19.72H37ZM47.0316 7.2V22H44.2316V7.2H47.0316ZM54.718 22.18C53.6513 22.18 52.6913 21.9467 51.838 21.48C50.9846 21 50.3113 20.3267 49.818 19.46C49.338 18.5933 49.098 17.5933 49.098 16.46C49.098 15.3267 49.3446 14.3267 49.838 13.46C50.3446 12.5933 51.0313 11.9267 51.898 11.46C52.7646 10.98 53.7313 10.74 54.798 10.74C55.8646 10.74 56.8313 10.98 57.698 11.46C58.5646 11.9267 59.2446 12.5933 59.738 13.46C60.2446 14.3267 60.498 15.3267 60.498 16.46C60.498 17.5933 60.238 18.5933 59.718 19.46C59.2113 20.3267 58.518 21 57.638 21.48C56.7713 21.9467 55.798 22.18 54.718 22.18ZM54.718 19.74C55.2246 19.74 55.698 19.62 56.138 19.38C56.5913 19.1267 56.9513 18.7533 57.218 18.26C57.4846 17.7667 57.618 17.1667 57.618 16.46C57.618 15.4067 57.338 14.6 56.778 14.04C56.2313 13.4667 55.558 13.18 54.758 13.18C53.958 13.18 53.2846 13.4667 52.738 14.04C52.2046 14.6 51.938 15.4067 51.938 16.46C51.938 17.5133 52.198 18.3267 52.718 18.9C53.2513 19.46 53.918 19.74 54.718 19.74ZM61.8319 16.46C61.8319 15.3133 62.0652 14.3133 62.5319 13.46C62.9985 12.5933 63.6452 11.9267 64.4719 11.46C65.2985 10.98 66.2452 10.74 67.3119 10.74C68.6852 10.74 69.8185 11.0867 70.7119 11.78C71.6185 12.46 72.2252 13.42 72.5319 14.66H69.5119C69.3519 14.18 69.0785 13.8067 68.6919 13.54C68.3185 13.26 67.8519 13.12 67.2919 13.12C66.4919 13.12 65.8585 13.4133 65.3919 14C64.9252 14.5733 64.6919 15.3933 64.6919 16.46C64.6919 17.5133 64.9252 18.3333 65.3919 18.92C65.8585 19.4933 66.4919 19.78 67.2919 19.78C68.4252 19.78 69.1652 19.2733 69.5119 18.26H72.5319C72.2252 19.46 71.6185 20.4133 70.7119 21.12C69.8052 21.8267 68.6719 22.18 67.3119 22.18C66.2452 22.18 65.2985 21.9467 64.4719 21.48C63.6452 21 62.9985 20.3333 62.5319 19.48C62.0652 18.6133 61.8319 17.6067 61.8319 16.46ZM81.1431 22L77.3831 17.28V22H74.5831V7.2H77.3831V15.62L81.1031 10.92H84.7431L79.8631 16.48L84.7831 22H81.1431Z" fill="#5902EC"/>
<path d="M100.528 8.04V10.3H96.8084V22H94.0084V10.3H90.2884V8.04H100.528ZM105.371 12.64C105.731 12.0533 106.198 11.5933 106.771 11.26C107.358 10.9267 108.025 10.76 108.771 10.76V13.7H108.031C107.151 13.7 106.485 13.9067 106.031 14.32C105.591 14.7333 105.371 15.4533 105.371 16.48V22H102.571V10.92H105.371V12.64ZM109.937 16.42C109.937 15.3 110.157 14.3067 110.597 13.44C111.051 12.5733 111.657 11.9067 112.417 11.44C113.191 10.9733 114.051 10.74 114.997 10.74C115.824 10.74 116.544 10.9067 117.157 11.24C117.784 11.5733 118.284 11.9933 118.657 12.5V10.92H121.477V22H118.657V20.38C118.297 20.9 117.797 21.3333 117.157 21.68C116.531 22.0133 115.804 22.18 114.977 22.18C114.044 22.18 113.191 21.94 112.417 21.46C111.657 20.98 111.051 20.3067 110.597 19.44C110.157 18.56 109.937 17.5533 109.937 16.42ZM118.657 16.46C118.657 15.78 118.524 15.2 118.257 14.72C117.991 14.2267 117.631 13.8533 117.177 13.6C116.724 13.3333 116.237 13.2 115.717 13.2C115.197 13.2 114.717 13.3267 114.277 13.58C113.837 13.8333 113.477 14.2067 113.197 14.7C112.931 15.18 112.797 15.7533 112.797 16.42C112.797 17.0867 112.931 17.6733 113.197 18.18C113.477 18.6733 113.837 19.0533 114.277 19.32C114.731 19.5867 115.211 19.72 115.717 19.72C116.237 19.72 116.724 19.5933 117.177 19.34C117.631 19.0733 117.991 18.7 118.257 18.22C118.524 17.7267 118.657 17.14 118.657 16.46ZM123.492 16.46C123.492 15.3133 123.725 14.3133 124.192 13.46C124.659 12.5933 125.305 11.9267 126.132 11.46C126.959 10.98 127.905 10.74 128.972 10.74C130.345 10.74 131.479 11.0867 132.372 11.78C133.279 12.46 133.885 13.42 134.192 14.66H131.172C131.012 14.18 130.739 13.8067 130.352 13.54C129.979 13.26 129.512 13.12 128.952 13.12C128.152 13.12 127.519 13.4133 127.052 14C126.585 14.5733 126.352 15.3933 126.352 16.46C126.352 17.5133 126.585 18.3333 127.052 18.92C127.519 19.4933 128.152 19.78 128.952 19.78C130.085 19.78 130.825 19.2733 131.172 18.26H134.192C133.885 19.46 133.279 20.4133 132.372 21.12C131.465 21.8267 130.332 22.18 128.972 22.18C127.905 22.18 126.959 21.9467 126.132 21.48C125.305 21 124.659 20.3333 124.192 19.48C123.725 18.6133 123.492 17.6067 123.492 16.46ZM142.803 22L139.043 17.28V22H136.243V7.2H139.043V15.62L142.763 10.92H146.403L141.523 16.48L146.443 22H142.803ZM158.223 16.22C158.223 16.62 158.196 16.98 158.143 17.3H150.043C150.11 18.1 150.39 18.7267 150.883 19.18C151.376 19.6333 151.983 19.86 152.703 19.86C153.743 19.86 154.483 19.4133 154.923 18.52H157.943C157.623 19.5867 157.01 20.4667 156.103 21.16C155.196 21.84 154.083 22.18 152.763 22.18C151.696 22.18 150.736 21.9467 149.883 21.48C149.043 21 148.383 20.3267 147.903 19.46C147.436 18.5933 147.203 17.5933 147.203 16.46C147.203 15.3133 147.436 14.3067 147.903 13.44C148.37 12.5733 149.023 11.9067 149.863 11.44C150.703 10.9733 151.67 10.74 152.763 10.74C153.816 10.74 154.756 10.9667 155.583 11.42C156.423 11.8733 157.07 12.52 157.523 13.36C157.99 14.1867 158.223 15.14 158.223 16.22ZM155.323 15.42C155.31 14.7 155.05 14.1267 154.543 13.7C154.036 13.26 153.416 13.04 152.683 13.04C151.99 13.04 151.403 13.2533 150.923 13.68C150.456 14.0933 150.17 14.6733 150.063 15.42H155.323ZM163.067 12.64C163.427 12.0533 163.893 11.5933 164.467 11.26C165.053 10.9267 165.72 10.76 166.467 10.76V13.7H165.727C164.847 13.7 164.18 13.9067 163.727 14.32C163.287 14.7333 163.067 15.4533 163.067 16.48V22H160.267V10.92H163.067V12.64ZM172.593 22.18C171.686 22.18 170.873 22.02 170.153 21.7C169.433 21.3667 168.859 20.92 168.433 20.36C168.019 19.8 167.793 19.18 167.753 18.5H170.573C170.626 18.9267 170.833 19.28 171.193 19.56C171.566 19.84 172.026 19.98 172.573 19.98C173.106 19.98 173.519 19.8733 173.813 19.66C174.119 19.4467 174.273 19.1733 174.273 18.84C174.273 18.48 174.086 18.2133 173.713 18.04C173.353 17.8533 172.773 17.6533 171.973 17.44C171.146 17.24 170.466 17.0333 169.933 16.82C169.413 16.6067 168.959 16.28 168.573 15.84C168.199 15.4 168.013 14.8067 168.013 14.06C168.013 13.4467 168.186 12.8867 168.533 12.38C168.893 11.8733 169.399 11.4733 170.053 11.18C170.719 10.8867 171.499 10.74 172.393 10.74C173.713 10.74 174.766 11.0733 175.553 11.74C176.339 12.3933 176.773 13.28 176.853 14.4H174.173C174.133 13.96 173.946 13.6133 173.613 13.36C173.293 13.0933 172.859 12.96 172.313 12.96C171.806 12.96 171.413 13.0533 171.133 13.24C170.866 13.4267 170.733 13.6867 170.733 14.02C170.733 14.3933 170.919 14.68 171.293 14.88C171.666 15.0667 172.246 15.26 173.033 15.46C173.833 15.66 174.493 15.8667 175.013 16.08C175.533 16.2933 175.979 16.6267 176.353 17.08C176.739 17.52 176.939 18.1067 176.953 18.84C176.953 19.48 176.773 20.0533 176.413 20.56C176.066 21.0667 175.559 21.4667 174.893 21.76C174.239 22.04 173.473 22.18 172.593 22.18Z" fill="black"/>
<path d="M26.1835 7.575L15.3502 2.575C15.2405 2.52424 15.121 2.49794 15.0002 2.49794C14.8793 2.49794 14.7599 2.52424 14.6502 2.575L3.81683 7.575C3.67218 7.64195 3.54976 7.74897 3.4641 7.88338C3.37843 8.01779 3.3331 8.17395 3.3335 8.33334V22.5C3.3331 22.6594 3.37843 22.8155 3.4641 22.95C3.54976 23.0844 3.67218 23.1914 3.81683 23.2583L14.6502 28.2583C14.7599 28.3091 14.8793 28.3354 15.0002 28.3354C15.121 28.3354 15.2405 28.3091 15.3502 28.2583L26.1835 23.2583C26.3281 23.1914 26.4506 23.0844 26.5362 22.95C26.6219 22.8155 26.6672 22.6594 26.6668 22.5V8.33334C26.6672 8.17395 26.6219 8.01779 26.5362 7.88338C26.4506 7.74897 26.3281 7.64195 26.1835 7.575ZM15.0002 4.25L23.8418 8.33334L15.0002 12.4167L6.1585 8.33334L15.0002 4.25ZM5.00017 9.63334L14.1668 13.8667V26.2L5.00017 21.9667V9.63334ZM15.8335 26.2V13.8667L25.0002 9.63334V21.9667L15.8335 26.2Z" fill="black"/>
</svg>
